<?xml version="1.0" encoding="utf-8"?>
<!-- Generator: Adobe Illustrator 23.1.1, SVG Export Plug-In . SVG Version: 6.00 Build 0)  -->
<svg version="1.1" id="Layer_1" xmlns="http://www.w3.org/2000/svg" xmlns:xlink="http://www.w3.org/1999/xlink" x="0px" y="0px"
	 viewBox="0 0 176.2 176.8" style="enable-background:new 0 0 176.2 176.8;" xml:space="preserve">
<style type="text/css">
	.st0{fill:#FFFFFF;}
	.st1{fill-opacity:0.1;}
	.st2{fill:url(#circle53_2_);}
	.st3{fill:url(#path55_2_);}
	.st4{fill:url(#path57_2_);}
	.st5{fill:url(#path59_2_);}
	.st6{fill:url(#path61_2_);}
	.st7{fill:url(#path63_2_);}
	.st8{fill:url(#path65_2_);}
</style>
<circle id="circle47_1_" class="st0" cx="88.3" cy="88.7" r="83.8"/>
<path id="path49_1_" class="st1" d="M141.6,103.9c0-29.5-23.9-53.3-53.3-53.3C58.9,50.6,35,74.5,35,103.9h15.2
	c0-21,17.1-38.1,38.1-38.1s38.1,17.1,38.1,38.1"/>
<circle id="circle51_1_" class="st1" cx="92.1" cy="99.4" r="29"/>
<linearGradient id="circle53_2_" gradientUnits="userSpaceOnUse" x1="-154.8958" y1="-93.4174" x2="-154.8958" y2="-92.6555" gradientTransform="matrix(82 0 0 82 12789.7637 7717.6992)">
	<stop  offset="0" style="stop-color:#81B4E0"/>
	<stop  offset="1" style="stop-color:#0C5A94"/>
</linearGradient>
<circle id="circle53_1_" class="st2" cx="88.3" cy="88.7" r="31.2"/>
<linearGradient id="path55_2_" gradientUnits="userSpaceOnUse" x1="-111.5293" y1="544.6082" x2="-111.5293" y2="613.9379" gradientTransform="matrix(1 0 0 1 202.5 -541.2241)">
	<stop  offset="0" style="stop-color:#F06B59"/>
	<stop  offset="1" style="stop-color:#DF2227"/>
</linearGradient>
<path id="path55_1_" class="st3" d="M164.5,50.6C143.5,8.4,92.3-8.8,50.1,12.2c-13.2,6.5-24.4,16.4-32.7,28.5l34.3,59.4
	c-6.3-20.1,4.8-41.5,24.9-47.8c3.5-1.1,7.2-1.7,10.9-1.8"/>
<linearGradient id="path57_2_" gradientUnits="userSpaceOnUse" x1="-178.7484" y1="690.5891" x2="-143.7034" y2="632.6887" gradientTransform="matrix(1 0 0 1 202.5 -541.2241)">
	<stop  offset="0" style="stop-color:#388B41"/>
	<stop  offset="1" style="stop-color:#4CB749"/>
</linearGradient>
<path id="path57_1_" class="st4" d="M17.5,40.7C-8.8,79.9,1.7,132.9,40.8,159.1c12.1,8.1,26.1,13,40.6,14.2l35.8-60.9
	c-13.4,16.2-37.4,18.5-53.6,5.1c-5.5-4.5-9.6-10.6-11.9-17.3"/>
<linearGradient id="path59_2_" gradientUnits="userSpaceOnUse" x1="-61.3475" y1="696.7479" x2="-98.6784" y2="606.8491" gradientTransform="matrix(1 0 0 1 202.5 -541.2241)">
	<stop  offset="0" style="stop-color:#E4B022"/>
	<stop  offset="0.3" style="stop-color:#FCD209"/>
</linearGradient>
<path id="path59_1_" class="st5" d="M81.4,173.3c47,3.6,88-31.7,91.5-78.7c1.1-15.2-1.8-30.4-8.5-44H87.5c21,0.1,38,17.2,37.9,38.3
	c0,8.5-2.9,16.8-8.2,23.4"/>
<linearGradient id="path61_2_" gradientUnits="userSpaceOnUse" x1="-167.1453" y1="639.0798" x2="-167.1453" y2="578.1317" gradientTransform="matrix(1 0 0 1 202.5 -541.2241)">
	<stop  offset="0" style="stop-color:#000000;stop-opacity:0.15"/>
	<stop  offset="0.3" style="stop-color:#000000;stop-opacity:6.000000e-02"/>
	<stop  offset="1" style="stop-color:#000000;stop-opacity:3.000000e-02"/>
</linearGradient>
<path id="path61_1_" class="st6" d="M17.5,40.7l34.3,59.4c-2.5-8.5-2-17.7,1.5-25.9L19,38.4"/>
<linearGradient id="path63_2_" gradientUnits="userSpaceOnUse" x1="-83.0188" y1="658.7618" x2="-124.9205" y2="701.4254" gradientTransform="matrix(1 0 0 1 202.5 -541.2241)">
	<stop  offset="0" style="stop-color:#000000;stop-opacity:0.15"/>
	<stop  offset="0.3" style="stop-color:#000000;stop-opacity:6.000000e-02"/>
	<stop  offset="1" style="stop-color:#000000;stop-opacity:3.000000e-02"/>
</linearGradient>
<path id="path63_1_" class="st7" d="M81.4,173.3l35.8-60.9c-5.7,6.7-13.5,11.3-22.1,13l-15.2,48"/>
<linearGradient id="path65_2_" gradientUnits="userSpaceOnUse" x1="-83.6261" y1="671.0358" x2="-77.5315" y2="610.8517" gradientTransform="matrix(1 0 0 1 202.5 -541.2241)">
	<stop  offset="0" style="stop-color:#000000;stop-opacity:0.15"/>
	<stop  offset="0.3" style="stop-color:#000000;stop-opacity:6.000000e-02"/>
	<stop  offset="1" style="stop-color:#000000;stop-opacity:3.000000e-02"/>
</linearGradient>
<path id="path65_1_" class="st8" d="M164.5,50.6H87.5c11.6,0.1,22.5,5.4,29.7,14.5L166,52.9"/>
</svg>
