<?xml version="1.0" encoding="utf-8"?>
<!-- Generator: Adobe Illustrator 23.1.1, SVG Export Plug-In . SVG Version: 6.00 Build 0)  -->
<svg version="1.1" id="Layer_1" xmlns="http://www.w3.org/2000/svg" xmlns:xlink="http://www.w3.org/1999/xlink" x="0px" y="0px"
	 viewBox="0 0 18 18" enable-background="new 0 0 18 18" xml:space="preserve">
<g>
	<path fill="#FFFFFF" d="M2.777,6.196H2.752H2.725c-0.04,0-0.079,0-0.132,0c-1.257,0-2.302,0.993-2.355,2.249
		c-0.067,1.296,0.94,2.408,2.236,2.474c0.04,0,0.079,0,0.119,0c0.595,0,1.164-0.224,1.6-0.622l0.013-0.013l0.013-0.013l4.776-4.048
		L2.777,6.196z"/>
	<path fill="#FFFFFF" d="M11.655,6.209c-0.132,0-0.264,0-0.41,0c-0.119,0-0.238,0-0.371,0v0.013c-0.026,0.014-2.116,1.8-2.13,4.182
		c-0.013,1.376,0.701,2.699,2.09,3.942c0.264,0.013,0.542,0.013,0.821,0.013c2.249,0,4.075-1.826,4.075-4.075
		S13.892,6.209,11.655,6.209z M12.409,10.364c-0.741,0-1.336-0.595-1.336-1.336c0-0.741,0.595-1.336,1.336-1.336
		c0.741,0,1.336,0.595,1.336,1.336C13.745,9.769,13.15,10.364,12.409,10.364z"/>
	<circle fill="#FFFFFF" cx="12.066" cy="8.696" r="0.423"/>
	<g>
		<path fill="#FFFFFF" d="M11.297,5.124c0.119,0,0.238,0,0.358,0c0.251,0,0.503,0.013,0.754,0.053
			c0.199-0.675,0.542-1.257,1.045-1.734c0.224,0.079,0.49,0.092,0.741-0.013c0.542-0.212,0.821-0.821,0.609-1.376
			c-0.212-0.542-0.821-0.821-1.376-0.609c-0.477,0.187-0.741,0.677-0.662,1.153C12.039,3.285,11.536,4.132,11.297,5.124z"/>
		<path fill="#FFFFFF" d="M17.185,3.18c-0.49-0.132-0.993,0.106-1.217,0.542c-1.152,0.145-2.183,0.675-3.043,1.561
			c0.397,0.106,0.767,0.251,1.125,0.436c0.595-0.503,1.257-0.807,1.998-0.913c0.145,0.199,0.344,0.358,0.609,0.423
			c0.569,0.145,1.152-0.185,1.296-0.754S17.754,3.325,17.185,3.18z"/>
	</g>
	<g>
		<path fill="#FFFFFF" d="M1.825,11.911l-1.64,2.779l3.414-1.164C2.897,13.089,2.301,12.546,1.825,11.911z"/>
	</g>
	<path fill="#FFFFFF" d="M8.03,8.458L6.363,9.874c-0.304,1.217-0.027,2.553,0.821,3.996c0.622,0.159,1.296,0.278,2.024,0.358
		c-1.032-1.204-1.548-2.488-1.535-3.837C7.659,9.689,7.805,9.04,8.03,8.458z"/>
	<path fill="#FFFFFF" d="M4.934,11.091c-0.45,0.423-1.018,0.714-1.64,0.846c0.649,0.609,1.468,1.112,2.448,1.495
		c-0.383-0.873-0.569-1.707-0.582-2.528L4.934,11.091z"/>
</g>
</svg>
