<svg width="58" height="27" viewBox="0 0 58 27" fill="none" xmlns="http://www.w3.org/2000/svg">
<path fill-rule="evenodd" clip-rule="evenodd" d="M52.0665 9.88769C51.5731 10.7902 50.8421 11.4095 49.8745 11.7474C48.9107 12.0834 47.9951 12.0407 47.1261 11.6216C46.2541 11.1862 45.6851 10.5016 45.4172 9.56576C45.1463 8.62165 45.2526 7.69091 45.7364 6.7721C46.2261 5.86846 46.9501 5.24122 47.9099 4.89147C48.873 4.54063 49.7908 4.57207 50.6624 4.98794C51.5506 5.41971 52.1329 6.11487 52.4075 7.07271C52.6798 8.02224 52.5654 8.96093 52.0665 9.88769ZM50.6645 0.14097C48.4615 -0.261893 46.4245 0.199503 44.5551 1.51504C42.6948 2.82407 41.5431 4.59017 41.0896 6.81187C40.6435 9.02744 41.0143 11.0591 42.1993 12.918C43.3794 14.7694 45.0377 15.9209 47.1839 16.3733C49.3394 16.8209 51.3656 16.4264 53.2653 15.1795C55.1739 13.9261 56.3898 12.1763 56.9024 9.92674C57.4131 7.65554 57.0599 5.55704 55.8403 3.64389C54.6159 1.72316 52.8871 0.554673 50.6645 0.14097ZM0.145226 11.0502V6.95579L11.3583 5.4905V8.95243L5.47017 17.1666L11.8176 16.4713V20.6755L0 21.8636V18.4854L5.74843 10.3875L0.145226 11.0502ZM23.7532 3.48335V11.2909C23.7532 12.2542 23.4359 13.113 22.803 13.8667C22.1801 14.6175 21.4269 15.0403 20.5457 15.1364C19.6671 15.2325 18.918 14.9756 18.2969 14.3675C17.6777 13.7612 17.3689 12.9841 17.3689 12.0338V4.32918L13.4086 4.85381V12.4945C13.4086 14.5894 14.0946 16.3153 15.4736 17.6779C16.86 19.0313 18.5486 19.6123 20.5457 19.4129C22.014 19.2665 23.0849 18.7596 23.7532 17.8918V18.4316C23.7532 19.3941 23.4359 20.2482 22.803 20.9925C22.1801 21.7339 21.4269 22.1451 20.5457 22.2282C20.5457 22.2282 18.2091 22.5198 16.6471 20.8588L14.1887 22.9577L13.3964 23.6341C13.3964 23.6341 15.8773 26.5304 19.7885 26.5416C19.7889 26.5407 19.7894 26.5398 19.7899 26.5389C19.7903 26.5384 19.7906 26.5378 19.7911 26.5372C20.0391 26.5423 20.2896 26.5398 20.5457 26.5181C22.5425 26.349 24.2639 25.4378 25.7042 23.7775C27.1526 22.1252 27.8851 20.2099 27.8939 18.0395V2.93452L23.7532 3.48335ZM39.5982 1.46099V5.16624C35.4323 5.53767 34.8511 8.56077 34.7725 9.55257L34.6452 18.0344L30.7857 18.3653V2.61177L34.8851 2.0763L34.8744 2.78736C35.0556 2.63236 35.253 2.49904 35.4545 2.38595V2.38558C36.8767 1.48989 39.5982 1.46099 39.5982 1.46099Z" fill="white"/>
</svg>
